<svg width="1200" height="900" viewBox="0 0 1200 900" fill="none" xmlns="http://www.w3.org/2000/svg">
<path d="M100 50.5V650.5" stroke="white" stroke-width="80"/>
<path d="M400 250.5V650.5" stroke="white" stroke-width="80"/>
<path d="M1100 250.5V650.5" stroke="white" stroke-width="80"/>
<path d="M700 250.5V850.5" stroke="white" stroke-width="80"/>
<path fill-rule="evenodd" clip-rule="evenodd" d="M395.049 269.777L175.049 669.777L185.651 650.5H140L104.951 631.223L324.951 231.223L314.349 250.5H360L395.049 269.777Z" fill="white"/>
<path fill-rule="evenodd" clip-rule="evenodd" d="M695.049 269.777L475.049 669.777L485.651 650.5H440L404.951 631.223L624.951 231.223L614.349 250.5H660L695.049 269.777Z" fill="white"/>
<path d="M1060 610.5H892" stroke="white" stroke-width="80"/>
<path fill-rule="evenodd" clip-rule="evenodd" d="M1095.29 269.324L775.294 869.324L785.333 850.5H740L704.706 831.676L1024.71 231.676L1014.67 250.5H1060L1095.29 269.324Z" fill="white"/>
</svg>
